<?xml version="1.0" encoding="UTF-8" standalone="no"?>
<!-- Created with Inkscape (http://www.inkscape.org/) -->

<svg
   xmlns:dc="http://purl.org/dc/elements/1.1/"
   xmlns:cc="http://creativecommons.org/ns#"
   xmlns:rdf="http://www.w3.org/1999/02/22-rdf-syntax-ns#"
   xmlns:svg="http://www.w3.org/2000/svg"
   xmlns="http://www.w3.org/2000/svg"
   xmlns:sodipodi="http://sodipodi.sourceforge.net/DTD/sodipodi-0.dtd"
   xmlns:inkscape="http://www.inkscape.org/namespaces/inkscape"
   width="32"
   height="32"
   viewBox="0 0 216.01218 216.01218"
   version="1.1"
   id="svg8"
   inkscape:version="0.92.4 (5da689c313, 2019-01-14)"
   sodipodi:docname="Argentina MSV 2017 road sign P-8(b).svg">
  <defs
     id="defs2" />
  <sodipodi:namedview
     id="base"
     pagecolor="#ffffff"
     bordercolor="#666666"
     borderopacity="1.0"
     inkscape:pageopacity="0.0"
     inkscape:pageshadow="2"
     inkscape:zoom="0.31544378"
     inkscape:cx="-180.22147"
     inkscape:cy="375.57089"
     inkscape:document-units="mm"
     inkscape:current-layer="layer1"
     showgrid="false"
     inkscape:measure-start="363.595,914.259"
     inkscape:measure-end="353.441,923.632"
     inkscape:window-width="1366"
     inkscape:window-height="705"
     inkscape:window-x="-8"
     inkscape:window-y="-8"
     inkscape:window-maximized="1"
     showguides="false" />
  <metadata
     id="metadata5">
    <rdf:RDF>
      <cc:Work
         rdf:about="">
        <dc:format>image/svg+xml</dc:format>
        <dc:type
           rdf:resource="http://purl.org/dc/dcmitype/StillImage" />
        <dc:title />
      </cc:Work>
    </rdf:RDF>
  </metadata>
  <g
     inkscape:label="Livello 1"
     inkscape:groupmode="layer"
     id="layer1"
     transform="translate(2.8006235,-45.23488)">
    <g
       id="g4949"
       transform="matrix(-0.70710678,-0.70710678,-0.70710678,0.70710678,352.63392,130.50006)">
      <g
         id="g4944">
        <rect
           style="opacity:1;fill:#faed2d;fill-opacity:1;fill-rule:nonzero;stroke:#faed2d;stroke-width:0.25616124;stroke-linecap:round;stroke-linejoin:round;stroke-miterlimit:28.39999962;stroke-dasharray:none;stroke-dashoffset:0;stroke-opacity:1"
           id="rect4929"
           width="158.75"
           height="158.75"
           x="79.503082"
           y="111.66359"
           rx="10.583333"
           ry="10.583333" />
        <rect
           style="opacity:1;fill:#faed2d;fill-opacity:1;fill-rule:nonzero;stroke:#000000;stroke-width:3.5276897;stroke-linecap:round;stroke-linejoin:round;stroke-miterlimit:28.39999962;stroke-dasharray:none;stroke-dashoffset:0;stroke-opacity:1"
           id="rect4940"
           width="148.16667"
           height="148.16667"
           x="84.657806"
           y="117.09219"
           rx="5.2916665"
           ry="5.2916665" />
      </g>
    </g>
    <path
       style="fill:#000000;stroke:#000000;stroke-width:0.24615499px;stroke-linecap:butt;stroke-linejoin:miter;stroke-opacity:1"
       d="m 114.85193,210.61927 v 8.17138 H 96.490408 v -13.14683 c 0.15886,-3.29328 2.21978,-13.09945 12.785792,-17.61601 3.47566,-1.56839 3.67538,-7.10831 -1.10553,-8.70013 l -18.313502,-6.48904 c -7.54701,-4.06779 -12.51703,-10.05663 -13.02606,-19.37098 -0.37331,-4.91972 1.2521,-9.90866 4.18181,-13.79523 2.28714,-3.0927 4.57058,-4.93427 8.79615,-7.45035 3.6254,-2.259 6.92114,-3.1575 7.49846,-3.60504 1.98625,-1.16095 3.510142,-2.69272 3.797302,-6.6813 -0.0986,-0.73006 -0.18027,-1.47138 -1.778472,-1.20169 l -8.70012,2.6437 c -4.55051,1.31317 -5.80806,-2.884 -3.84531,-5.47963 L 107.20934,87.087226 c 1.68843,-2.74123 4.5922,-2.71836 6.15254,-0.5768 l 21.9185,31.387674 c 2.65919,3.75133 -0.85142,6.30764 -3.26855,5.47963 l -9.61339,-3.22047 c -1.32012,-0.4324 -2.27334,-0.061 -2.11495,1.24974 0.4576,6.17833 0.57309,10.25328 -3.41272,16.19856 -2.47023,3.61289 -5.65537,6.18908 -9.2769,8.02719 l -8.267522,3.89341 c -3.00015,2.01334 -1.53366,6.9591 0.865202,7.73878 l 17.83282,5.67191 c 10.12457,4.01267 13.72027,13.20165 13.98746,17.68863 0.47081,6.69789 -1.16573,16.64296 -12.25707,22.59149 -3.91981,2.04947 -4.96539,4.84453 -4.90283,7.4023 z"
       id="path4838"
       inkscape:connector-curvature="0"
       sodipodi:nodetypes="ccccccccccccccccccccccccccccc" />
  </g>
</svg>
